# xmcd CD database file generated by Grip 3.2.0
# 
# Track frame offsets:
#       150
#       23487
#       50623
#       76262
#       102269
#       123001
#       141099
#       156774
#       179462
#       203312
#       224809
# 
# Disc length: 3308 seconds
# 
# Revision: 2
# Processed by: cddbd v1.5.1PL0 Copyright (c) Steve Scherf et al.
# Submitted via: Grip 3.2.0
# 
DISCID=8c0cea0b
DTITLE=Bakuleyé - Timbantón
DYEAR=2000
DGENRE=Salsa
TTITLE0=Timbantón
TTITLE1=Que culpa tengo yo
TTITLE2=Pelona
TTITLE3=Algo más
TTITLE4=La Suiza
TTITLE5=El plastico
TTITLE6=Mala costumbre
TTITLE7=Conquista tu hombre
TTITLE8=Amor del bueno
TTITLE9=Algo más (Balada)
TTITLE10=Gangerro
EXTD=YEAR: 2000
EXTT0=
EXTT1=
EXTT2=
EXTT3=
EXTT4=
EXTT5=
EXTT6=
EXTT7=
EXTT8=
EXTT9=
EXTT10=
PLAYORDER=
